<svg width="19" height="27" viewBox="0 0 19 27" fill="none" xmlns="http://www.w3.org/2000/svg">
<path d="M2.98476 17.2915L0.514347 5.78241L7.41619 6.38624L2.98476 17.2915Z" fill="#02C5F0"/>
<path d="M16.6897 18.2933L11.2154 7.19581L18.0383 5.99274L16.6897 18.2933Z" fill="#02C5F0"/>
<rect x="3" y="7" width="13" height="16" fill="#02C5F0"/>
<path fill-rule="evenodd" clip-rule="evenodd" d="M9.5 8C12.9842 8 16.0303 7.21024 17.6837 6.03269L15.2047 22.5609C14.1008 21.6307 11.96 21 9.5 21C7.04003 21 4.89923 21.6307 3.79532 22.5609L1.31606 6.0325C2.96936 7.21016 6.01561 8 9.5 8ZM3 24L0.0765091 4.51006C0.0260231 4.34304 0 4.1728 0 4C0 1.79086 4.25329 0 9.5 0C14.7467 0 19 1.79086 19 4C19 4.1734 18.9738 4.34422 18.923 4.5118L16 24C16 25.6569 13.0899 27 9.5 27C5.91015 27 3 25.6569 3 24Z" fill="#D9D9D9"/>
<ellipse cx="9.5" cy="4" rx="8.5" ry="3" fill="#02C5F0"/>
</svg>
