<svg width="75" height="27" viewBox="0 0 75 27" fill="none" xmlns="http://www.w3.org/2000/svg">
<path d="M2.98476 17.2915L0.514347 5.78241L7.41619 6.38624L2.98476 17.2915Z" fill="#02C5F0"/>
<path d="M16.6897 18.2933L11.2154 7.19581L18.0383 5.99274L16.6897 18.2933Z" fill="#02C5F0"/>
<rect x="3" y="7" width="13" height="16" fill="#02C5F0"/>
<path fill-rule="evenodd" clip-rule="evenodd" d="M9.5 8C12.9842 8 16.0303 7.21024 17.6837 6.03269L15.2047 22.5609C14.1008 21.6307 11.96 21 9.5 21C7.04003 21 4.89923 21.6307 3.79532 22.5609L1.31606 6.0325C2.96936 7.21016 6.01561 8 9.5 8ZM3 24L0.0765091 4.51006C0.0260231 4.34304 0 4.1728 0 4C0 1.79086 4.25329 0 9.5 0C14.7467 0 19 1.79086 19 4C19 4.1734 18.9738 4.34422 18.923 4.5118L16 24C16 25.6569 13.0899 27 9.5 27C5.91015 27 3 25.6569 3 24Z" fill="#D9D9D9"/>
<ellipse cx="9.5" cy="4" rx="8.5" ry="3" fill="#02C5F0"/>
<path d="M30.9848 17.2915L28.5143 5.78241L35.4162 6.38624L30.9848 17.2915Z" fill="#02C5F0"/>
<path d="M44.6897 18.2933L39.2154 7.19581L46.0383 5.99274L44.6897 18.2933Z" fill="#02C5F0"/>
<rect x="31" y="7" width="13" height="16" fill="#02C5F0"/>
<path fill-rule="evenodd" clip-rule="evenodd" d="M37.5 8C40.9842 8 44.0303 7.21024 45.6837 6.03269L43.2047 22.5609C42.1008 21.6307 39.96 21 37.5 21C35.04 21 32.8992 21.6307 31.7953 22.5609L29.3161 6.0325C30.9694 7.21016 34.0156 8 37.5 8ZM31 24L28.0765 4.51006C28.026 4.34304 28 4.1728 28 4C28 1.79086 32.2533 0 37.5 0C42.7467 0 47 1.79086 47 4C47 4.1734 46.9738 4.34422 46.923 4.5118L44 24C44 25.6569 41.0899 27 37.5 27C33.9101 27 31 25.6569 31 24Z" fill="#D9D9D9"/>
<ellipse cx="37.5" cy="4" rx="8.5" ry="3" fill="#02C5F0"/>
<path d="M58.9848 17.2915L56.5143 5.78241L63.4162 6.38624L58.9848 17.2915Z" fill="#02C5F0"/>
<path d="M72.6897 18.2933L67.2154 7.19581L74.0383 5.99274L72.6897 18.2933Z" fill="#02C5F0"/>
<rect x="59" y="7" width="13" height="16" fill="#02C5F0"/>
<path fill-rule="evenodd" clip-rule="evenodd" d="M65.5 8C68.9842 8 72.0303 7.21024 73.6837 6.03269L71.2047 22.5609C70.1008 21.6307 67.96 21 65.5 21C63.04 21 60.8992 21.6307 59.7953 22.5609L57.3161 6.0325C58.9694 7.21016 62.0156 8 65.5 8ZM59 24L56.0765 4.51006C56.026 4.34304 56 4.1728 56 4C56 1.79086 60.2533 0 65.5 0C70.7467 0 75 1.79086 75 4C75 4.1734 74.9738 4.34422 74.923 4.5118L72 24C72 25.6569 69.0899 27 65.5 27C61.9101 27 59 25.6569 59 24Z" fill="#D9D9D9"/>
<ellipse cx="65.5" cy="4" rx="8.5" ry="3" fill="#02C5F0"/>
<path fill-rule="evenodd" clip-rule="evenodd" d="M58.9848 17.2915L56.5143 5.78241L63.4162 6.38624L63.1668 7H68.3259L74.0383 5.99274L72.6897 18.2933L72 16.8952V23H59V17.254L58.9848 17.2915Z" fill="#FBFBFB"/>
<path fill-rule="evenodd" clip-rule="evenodd" d="M65.5 8C68.9842 8 72.0303 7.21024 73.6837 6.03269L71.2047 22.5609C70.1008 21.6307 67.96 21 65.5 21C63.04 21 60.8992 21.6307 59.7953 22.5609L57.3161 6.0325C58.9694 7.21016 62.0156 8 65.5 8ZM59 24L56.0765 4.51006C56.026 4.34304 56 4.1728 56 4C56 1.79086 60.2533 0 65.5 0C70.7467 0 75 1.79086 75 4C75 4.1734 74.9738 4.34422 74.923 4.5118L72 24C72 25.6569 69.0899 27 65.5 27C61.9101 27 59 25.6569 59 24Z" fill="#D9D9D9"/>
<ellipse cx="65.5" cy="4" rx="8.5" ry="3" fill="white"/>
</svg>
