<svg width="17" height="17" viewBox="0 0 17 17" fill="none" xmlns="http://www.w3.org/2000/svg">
<path fill-rule="evenodd" clip-rule="evenodd" d="M16.1749 1.47075C16.4348 0.983453 16.2504 0.377734 15.7631 0.117842C15.2758 -0.142051 14.6701 0.0422981 14.4102 0.529597L7.0455 14.3384L1.70707 8.99999C1.31655 8.60947 0.683402 8.60947 0.292887 8.99999C-0.0976287 9.3905 -0.097629 10.0237 0.292887 10.4142L6.5692 16.6905C6.60813 16.7313 6.6509 16.7691 6.69733 16.8034C6.79222 16.8739 6.89678 16.9254 7.00579 16.958C7.29431 17.0447 7.60257 16.9944 7.8462 16.8329C7.94101 16.77 8.02603 16.6903 8.09629 16.5952C8.13073 16.5489 8.16064 16.5002 8.18603 16.4498L16.1749 1.47075Z" fill="black"/>
</svg>
